name analog
datacolumns 19
datarows 27
range 0.1815 0.1945
endheader
time	ground_force_vx	ground_force_vy	ground_force_vz	ground_force_px	ground_force_py	ground_force_pz	l_ground_force_vx	l_ground_force_vy	l_ground_force_vz	l_ground_force_px	l_ground_force_py	l_ground_force_pz	ground_torque_x	ground_torque_y	ground_torque_z	l_ground_torque_x	l_ground_torque_y	l_ground_torque_z
0.1815	-0.0	-0.0	-0.0	-2.836865186691284	-4.272356033325195	-489.5781555175781	-1.106848955154419	-8.167729377746582	-144.54876708984375	-0.0	-0.0	-0.0	-0.0	-0.0	-0.0	51565.41015625	1839.6925048828125	-2799.037841796875
0.182	-0.0	-0.0	-0.0	-2.8962414264678955	-4.682443618774414	-485.482666015625	-1.0688908100128174	-8.632359504699707	-147.5079803466797	-0.0	-0.0	-0.0	-0.0	-0.0	-0.0	52735.7890625	1855.131103515625	-2953.79541015625
0.1825	-0.0	-0.0	-0.0	-2.384789228439331	-4.593396663665772	-482.2545776367188	-1.256204605102539	-9.44591236114502	-152.04661560058594	-0.0	-0.0	-0.0	-0.0	-0.0	-0.0	54087.0	1815.3828125	-2979.00537109375
0.183	-0.0	-0.0	-0.0	-2.051841735839844	-5.29999303817749	-477.9300842285156	-1.307309865951538	-10.287137985229492	-154.93141174316406	-0.0	-0.0	-0.0	-0.0	-0.0	-0.0	55056.28125	1828.5750732421875	-2887.1923828125
0.1835	-0.0	-0.0	-0.0	-2.717505931854248	-5.248351097106934	-475.4072570800781	-1.022667407989502	-10.863567352294922	-158.93655395507812	-0.0	-0.0	-0.0	-0.0	-0.0	-0.0	56397.359375	1842.0618896484373	-3025.8837890625
0.184	-0.0	-0.0	-0.0	-2.5078375339508057	-5.875550270080566	-470.7888793945313	-1.0827929973602295	-11.788347244262695	-161.58531188964844	-0.0	-0.0	-0.0	-0.0	-0.0	-0.0	57413.36328125	1775.9534912109375	-2954.463623046875
0.1845	-0.0	-0.0	-0.0	-2.312119483947754	-5.786128997802734	-467.6393737792969	-0.8871078491210938	-12.347068786621094	-163.49566650390625	-0.0	-0.0	-0.0	-0.0	-0.0	-0.0	58449.51953125	1935.82568359375	-2910.8427734375
0.185	-0.0	-0.0	-0.0	-1.7600270509719849	-5.598569393157959	-464.4975891113281	-0.691765546798706	-13.266095161437988	-167.5704345703125	-0.0	-0.0	-0.0	-0.0	-0.0	-0.0	59326.37109375	1869.54443359375	-2814.054931640625
0.1855	-0.0	-0.0	-0.0	-1.784210205078125	-5.841915607452393	-460.1934814453125	-0.484955370426178	-13.778182983398438	-169.2686767578125	-0.0	-0.0	-0.0	-0.0	-0.0	-0.0	59932.40234375	1947.4991455078125	-2859.502197265625
0.186	-0.0	-0.0	-0.0	-1.8085246086120603	-5.680053234100342	-457.9136962890625	-0.8571830987930298	-14.284489631652832	-172.8990478515625	-0.0	-0.0	-0.0	-0.0	-0.0	-0.0	60653.74609375	2175.944091796875	-2925.109619140625
0.1865	-0.0	-0.0	-0.0	-2.084125518798828	-5.9878644943237305	-455.5696105957031	-0.4736868143081665	-14.573078155517578	-175.69175720214844	-0.0	-0.0	-0.0	-0.0	-0.0	-0.0	61494.41015625	2000.4617919921875	-2881.4501953125
0.187	-0.0	-0.0	-0.0	-1.7437958717346191	-6.490517616271973	-449.278076171875	-0.9758186340332032	-15.021188735961914	-176.0147247314453	-0.0	-0.0	-0.0	-0.0	-0.0	-0.0	61942.77734375	1874.9224853515625	-2919.54736328125
0.1875	-0.0	-0.0	-0.0	-2.189994096755981	-6.474952220916748	-447.8665161132813	-0.5629681348800659	-15.955656051635742	-176.76470947265625	-0.0	-0.0	-0.0	-0.0	-0.0	-0.0	62596.921875	1821.580078125	-2911.529052734375
0.188	-0.0	-0.0	-0.0	-1.9470081329345703	-6.497621059417725	-443.43505859375	-0.3548431396484375	-15.979204177856444	-177.58523559570312	-0.0	-0.0	-0.0	-0.0	-0.0	-0.0	63264.0546875	1971.942626953125	-2643.4794921875
0.1885	-0.0	-0.0	-0.0	-2.214858293533325	-6.555679321289063	-440.7439880371094	-0.2901455163955688	-16.27509880065918	-181.39871215820312	-0.0	-0.0	-0.0	-0.0	-0.0	-0.0	63559.60546875	2083.109375	-2795.879638671875
0.189	-0.0	-0.0	-0.0	-2.1011292934417725	-6.792623043060303	-437.6875305175781	-0.3879361748695373	-17.08650779724121	-180.8900909423828	-0.0	-0.0	-0.0	-0.0	-0.0	-0.0	64150.0546875	1886.0059814453125	-2695.999755859375
0.1895	-0.0	-0.0	-0.0	-2.626910924911499	-6.838360786437988	-433.7809448242188	-0.0559658408164978	-17.270742416381836	-183.65374755859372	-0.0	-0.0	-0.0	-0.0	-0.0	-0.0	64462.08203125	1703.9996337890625	-2636.463134765625
0.19	-0.0	-0.0	-0.0	-2.99849271774292	-6.877912998199463	-430.38909912109375	0.1290511488914489	-17.81690216064453	-184.1616668701172	-0.0	-0.0	-0.0	-0.0	-0.0	-0.0	65050.796875	1783.2203369140625	-2471.951171875
0.1905	-0.0	-0.0	-0.0	-2.4086837768554688	-6.659985542297363	-429.1136474609375	-0.0320601165294647	-18.45107078552246	-186.6685028076172	-0.0	-0.0	-0.0	-0.0	-0.0	-0.0	65723.6328125	1695.725341796875	-2469.565673828125
0.191	-0.0	-0.0	-0.0	-2.9190878868103027	-6.724237442016602	-424.6206970214844	0.2175951600074768	-19.17413330078125	-186.73350524902344	-0.0	-0.0	-0.0	-0.0	-0.0	-0.0	66039.9609375	1587.8543701171875	-2410.29931640625
0.1915	-0.0	-0.0	-0.0	-2.4086837768554688	-6.595649719238281	-423.125	0.5966344475746155	-20.09587860107422	-189.27423095703125	-0.0	-0.0	-0.0	-0.0	-0.0	-0.0	66470.7734375	1715.5638427734375	-2267.286376953125
0.192	-0.0	-0.0	-0.0	-2.422924757003784	-6.210671901702881	-419.06927490234375	0.7895123958587646	-20.490631103515625	-190.15663146972656	-0.0	-0.0	-0.0	-0.0	-0.0	-0.0	66930.578125	1847.2967529296875	-2210.157958984375
0.1925	-0.0	-0.0	-0.0	-2.0628819465637207	-6.278178215026856	-418.5619201660156	1.0645294189453125	-20.94746971130371	-191.23876953125	-0.0	-0.0	-0.0	-0.0	-0.0	-0.0	67179.4296875	1884.6995849609373	-2118.893310546875
0.193	-0.0	-0.0	-0.0	-2.2804722785949707	-6.219416618347168	-418.5625915527344	1.306148648262024	-21.437763214111328	-192.88787841796875	-0.0	-0.0	-0.0	-0.0	-0.0	-0.0	67339.75	1623.7471923828125	-1838.613525390625
0.1935	-0.0	-0.0	-0.0	-1.871140956878662	-5.905468940734863	-417.3590698242188	2.000779390335083	-21.52602767944336	-192.4202117919922	-0.0	-0.0	-0.0	-0.0	-0.0	-0.0	67626.65625	1671.9873046875	-1724.5589599609375
0.194	-0.0	-0.0	-0.0	-1.2994189262390137	-5.933032989501953	-417.612060546875	2.671186685562134	-22.17856216430664	-193.5269927978516	-0.0	-0.0	-0.0	-0.0	-0.0	-0.0	67795.609375	2068.064697265625	-1491.8780517578125
0.1945	-0.0	-0.0	-0.0	-1.0556720495224	-5.156198024749756	-420.28997802734375	3.4597206115722656	-22.600366592407227	-193.372314453125	-0.0	-0.0	-0.0	-0.0	-0.0	-0.0	68207.5078125	2185.90576171875	-1282.1875
